<svg width="50" height="50" viewBox="0 0 50 50" fill="none" xmlns="http://www.w3.org/2000/svg">
<path d="M0 24.3902C0 12.8926 0 7.14374 3.57187 3.57187C7.14374 0 12.8926 0 24.3902 0H25.6098C37.1074 0 42.8563 0 46.4281 3.57187C50 7.14374 50 12.8926 50 24.3902V25.6098C50 37.1074 50 42.8563 46.4281 46.4281C42.8563 50 37.1074 50 25.6098 50H24.3902C12.8926 50 7.14374 50 3.57187 46.4281C0 42.8563 0 37.1074 0 25.6098V24.3902Z" fill="#E5F4F2"/>
<path opacity="0.2" d="M15.5063 19.658C15.4338 19.7825 15.3958 19.9241 15.3962 20.0682V29.9319C15.397 30.0744 15.4353 30.2142 15.5073 30.3371C15.5793 30.4601 15.6825 30.5618 15.8064 30.6322L24.6098 35.5841C24.7284 35.6519 24.8632 35.6865 24.9999 35.6841L25.0899 25.0001L15.5063 19.658Z" fill="#009379"/>
<path d="M34.6036 29.932V20.0682C34.6028 19.9257 34.5645 19.786 34.4925 19.663C34.4205 19.5401 34.3173 19.4383 34.1934 19.3679L25.39 14.4161C25.2714 14.3476 25.1369 14.3115 24.9999 14.3115C24.8629 14.3115 24.7284 14.3476 24.6097 14.4161L15.8064 19.3679C15.6825 19.4383 15.5793 19.5401 15.5073 19.663C15.4353 19.786 15.397 19.9257 15.3962 20.0682V29.932C15.397 30.0745 15.4353 30.2142 15.5073 30.3372C15.5793 30.4601 15.6825 30.5619 15.8064 30.6322L24.6097 35.5841C24.7284 35.6526 24.8629 35.6887 24.9999 35.6887C25.1369 35.6887 25.2714 35.6526 25.39 35.5841L34.1934 30.6322C34.3173 30.5619 34.4205 30.4601 34.4925 30.3372C34.5645 30.2142 34.6028 30.0745 34.6036 29.932V29.932Z" stroke="#009379" stroke-width="1.44817" stroke-linecap="round" stroke-linejoin="round"/>
<path d="M29.9017 27.4509V22.249L20.198 16.8969" stroke="#009379" stroke-width="1.44817" stroke-linecap="round" stroke-linejoin="round"/>
<path d="M34.4936 19.658L25.09 25.0001L15.5063 19.658" stroke="#009379" stroke-width="1.44817" stroke-linecap="round" stroke-linejoin="round"/>
<path d="M25.09 25.0001L25 35.6842" stroke="#009379" stroke-width="1.44817" stroke-linecap="round" stroke-linejoin="round"/>
</svg>
