<svg width="50" height="50" viewBox="0 0 50 50" fill="none" xmlns="http://www.w3.org/2000/svg">
<path d="M0 24.3902C0 12.8926 0 7.14374 3.57187 3.57187C7.14374 0 12.8926 0 24.3902 0H25.6098C37.1074 0 42.8563 0 46.4281 3.57187C50 7.14374 50 12.8926 50 24.3902V25.6098C50 37.1074 50 42.8563 46.4281 46.4281C42.8563 50 37.1074 50 25.6098 50H24.3902C12.8926 50 7.14374 50 3.57187 46.4281C0 42.8563 0 37.1074 0 25.6098V24.3902Z" fill="#E5F4F2"/>
<path opacity="0.2" d="M29.9018 19.0778C30.3597 19.9118 30.6005 20.8475 30.6021 21.7989V22.189C30.6037 22.5503 30.4814 22.9013 30.2557 23.1834C30.03 23.4656 29.7144 23.6618 29.3616 23.7396C27.9301 24.0595 26.4666 24.2139 24.9999 24.1998C23.5332 24.2139 22.0697 24.0595 20.6383 23.7396C20.2854 23.6618 19.9698 23.4656 19.7441 23.1834C19.5184 22.9013 19.3962 22.5503 19.3978 22.189V21.8789C19.3984 20.8969 19.6534 19.9319 20.1381 19.0778C16.3866 19.8481 13.7957 21.4987 13.7957 23.3995C13.7957 26.0505 18.8076 28.2013 24.9999 28.2013C31.1923 28.2013 36.2042 26.0505 36.2042 23.3995C36.2042 21.4987 33.6332 19.8581 29.9018 19.0778Z" fill="#009379"/>
<path d="M29.0815 31.0723L29.4717 33.4332" stroke="#009379" stroke-width="1.44817" stroke-linecap="round" stroke-linejoin="round"/>
<path d="M25 31.4025V34.6037" stroke="#009379" stroke-width="1.44817" stroke-linecap="round" stroke-linejoin="round"/>
<path d="M20.9185 31.0723L20.5283 33.4332" stroke="#009379" stroke-width="1.44817" stroke-linecap="round" stroke-linejoin="round"/>
<path d="M29.9018 19.0778C33.6332 19.8581 36.2042 21.4987 36.2042 23.3995C36.2042 26.0505 31.1923 28.2013 24.9999 28.2013C18.8076 28.2013 13.7957 26.0505 13.7957 23.3995C13.7957 21.4987 16.3866 19.8481 20.1381 19.0778" stroke="#009379" stroke-width="1.44817" stroke-linecap="round" stroke-linejoin="round"/>
<path d="M19.3977 22.1889C19.3961 22.5502 19.5184 22.9012 19.7441 23.1833C19.9698 23.4654 20.2853 23.6617 20.6382 23.7395C22.0697 24.0594 23.5331 24.2138 24.9999 24.1997C26.4666 24.2138 27.9301 24.0594 29.3615 23.7395C29.7144 23.6617 30.0299 23.4654 30.2556 23.1833C30.4814 22.9012 30.6036 22.5502 30.602 22.1889V21.7987C30.602 21.0571 30.4549 20.3229 30.169 19.6386C29.8831 18.9543 29.4641 18.3336 28.9365 17.8125C28.4088 17.2913 27.783 16.8802 27.0952 16.6028C26.4074 16.3254 25.6714 16.1873 24.9298 16.1966C21.8487 16.2366 19.3977 18.8076 19.3977 21.8788V22.1889Z" stroke="#009379" stroke-width="1.44817" stroke-linecap="round" stroke-linejoin="round"/>
</svg>
